<svg xmlns="http://www.w3.org/2000/svg" viewBox="0 0 128 128">
  <rect width="128" height="128" rx="24" fill="#a8c878"/>
  <rect x="20" y="36" width="88" height="72" rx="10" fill="none" stroke="#8a6a3a" stroke-width="6"/>
  <line x1="20" y1="62" x2="108" y2="62" stroke="#a5854f" stroke-width="4"/>
  <line x1="20" y1="86" x2="108" y2="86" stroke="#a5854f" stroke-width="4"/>
  <circle cx="46" cy="76" r="15" fill="#f6f1e2"/>
  <circle cx="41" cy="70" r="3" fill="#4a4a52"/>
  <circle cx="52" cy="80" r="3" fill="#4a4a52"/>
  <circle cx="43" cy="74" r="2" fill="#2c2416"/>
  <circle cx="49" cy="74" r="2" fill="#2c2416"/>
  <path d="M44 79 q2 2 4 0" fill="none" stroke="#4a3420" stroke-width="1.6"/>
  <circle cx="84" cy="76" r="15" fill="#3a3a44"/>
  <circle cx="81" cy="74" r="2" fill="#fff"/>
  <circle cx="87" cy="74" r="2" fill="#fff"/>
  <path d="M82 80 q2 2 4 0" fill="none" stroke="#e8e0d0" stroke-width="1.6"/>
  <path d="M96 28 L108 20 M100 34 L112 30" stroke="#f4ecd4" stroke-width="4" stroke-linecap="round"/>
  <path d="M92 24 L116 36" stroke="#8a6a3a" stroke-width="6" stroke-linecap="round"/>
</svg>
